# xmcd CD database file
#
# Track frame offsets:
#	150
#	16640
#	32135
#	54277
#	75682
#	99455
#	121765
#	144357
#	163234
#	177177
#	188010
#	210022
#	233117
#	255415
#
# Disc length: 3682 seconds
#
# Revision: 11
# Processed by: cddbd v1.5.2PL0 Copyright (c) Steve Scherf et al.
# Submitted via: CDex 1.70beta3
#
DISCID=9f0e600e
DTITLE=???? - ??
DYEAR=1998
DGENRE=Vocal
TTITLE0=??
TTITLE1=CAFE JAPAN
TTITLE2=ROOTS
TTITLE3=?????
TTITLE4=MR.LONELY
TTITLE5=????????????
TTITLE6=??????
TTITLE7=STAR
TTITLE8=????
TTITLE9=FIGHT OH!
TTITLE10=??????
TTITLE11=????
TTITLE12=JUNK LANDO
TTITLE13=????
EXTD=YEAR: 1998
EXTT0=
EXTT1=
EXTT2=
EXTT3=
EXTT4=
EXTT5=
EXTT6=
EXTT7=
EXTT8=
EXTT9=
EXTT10=
EXTT11=
EXTT12=
EXTT13=
PLAYORDER=
